<?xml version="1.0" encoding="utf-8"?>
<!-- Generator: Adobe Illustrator 24.2.3, SVG Export Plug-In . SVG Version: 6.00 Build 0)  -->
<svg version="1.1" xmlns="http://www.w3.org/2000/svg" xmlns:xlink="http://www.w3.org/1999/xlink" x="0px" y="0px"
	 viewBox="0 0 792 1224" style="enable-background:new 0 0 792 1224;" xml:space="preserve">
<style type="text/css">
	.st0{fill:#DE944C;stroke:#000000;stroke-linecap:round;stroke-linejoin:round;stroke-miterlimit:10;}
	.st1{fill:#2E3789;stroke:#000000;stroke-linecap:round;stroke-linejoin:round;stroke-miterlimit:10;}
	.st2{fill:#7C5624;stroke:#000000;stroke-linecap:round;stroke-linejoin:round;stroke-miterlimit:10;}
	.st3{fill:#E12C58;stroke:#000000;stroke-linecap:round;stroke-linejoin:round;stroke-miterlimit:10;}
	.st4{fill:#66237D;stroke:#000000;stroke-linecap:round;stroke-linejoin:round;stroke-miterlimit:10;}
	.st5{fill:#7B99CF;stroke:#000000;stroke-linecap:round;stroke-linejoin:round;stroke-miterlimit:10;}
	.st6{fill:#3D8334;stroke:#000000;stroke-linecap:round;stroke-linejoin:round;stroke-miterlimit:10;}
	.st7{fill:#2F6A7D;stroke:#000000;stroke-linecap:round;stroke-linejoin:round;stroke-miterlimit:10;}
	.st8{fill:#E3C66E;stroke:#000000;stroke-linecap:round;stroke-linejoin:round;stroke-miterlimit:10;}
	.st9{fill:#464A8B;stroke:#000000;stroke-linecap:round;stroke-linejoin:round;stroke-miterlimit:10;}
	.st10{fill:#69CEF4;stroke:#000000;stroke-linecap:round;stroke-linejoin:round;stroke-miterlimit:10;}
	.st11{fill:#9D641C;stroke:#000000;stroke-linecap:round;stroke-linejoin:round;stroke-miterlimit:10;}
	.st12{fill:#77383F;stroke:#000000;stroke-linecap:round;stroke-linejoin:round;stroke-miterlimit:10;}
	.st13{fill:#DAE80A;stroke:#000000;stroke-linecap:round;stroke-linejoin:round;stroke-miterlimit:10;}
	.st14{fill:#62B65F;stroke:#000000;stroke-linecap:round;stroke-linejoin:round;stroke-miterlimit:10;}
	.st15{fill:#BF78AF;stroke:#000000;stroke-linecap:round;stroke-linejoin:round;stroke-miterlimit:10;}
	.st16{fill:#6AC828;stroke:#000000;stroke-linecap:round;stroke-linejoin:round;stroke-miterlimit:10;}
	.st17{fill:#79CD93;stroke:#000000;stroke-linecap:round;stroke-linejoin:round;stroke-miterlimit:10;}
	.st18{fill:#7FCE4D;stroke:#000000;stroke-linecap:round;stroke-linejoin:round;stroke-miterlimit:10;}
	.st19{fill:#6EB687;stroke:#000000;stroke-linecap:round;stroke-linejoin:round;stroke-miterlimit:10;}
	.st20{fill:#88D7D5;stroke:#000000;stroke-linecap:round;stroke-linejoin:round;stroke-miterlimit:10;}
	.st21{fill:#39AC3E;stroke:#000000;stroke-linecap:round;stroke-linejoin:round;stroke-miterlimit:10;}
	.st22{fill:#C5589E;stroke:#000000;stroke-linecap:round;stroke-linejoin:round;stroke-miterlimit:10;}
	.st23{fill:#9145A5;stroke:#000000;stroke-linecap:round;stroke-linejoin:round;stroke-miterlimit:10;}
	.st24{fill:#696EC1;stroke:#000000;stroke-linecap:round;stroke-linejoin:round;stroke-miterlimit:10;}
	.st25{fill:#F33E1E;stroke:#000000;stroke-linecap:round;stroke-linejoin:round;stroke-miterlimit:10;}
	.st26{fill:#5F65B5;stroke:#000000;stroke-linecap:round;stroke-linejoin:round;stroke-miterlimit:10;}
	.st27{fill:#9DD96D;stroke:#000000;stroke-linecap:round;stroke-linejoin:round;stroke-miterlimit:10;}
	.st28{fill:#7C904C;stroke:#000000;stroke-linecap:round;stroke-linejoin:round;stroke-miterlimit:10;}
	.st29{fill:#EB6961;stroke:#000000;stroke-linecap:round;stroke-linejoin:round;stroke-miterlimit:10;}
	.st30{fill:#C5E344;stroke:#000000;stroke-linecap:round;stroke-linejoin:round;stroke-miterlimit:10;}
	.st31{fill:#CA2C9B;stroke:#000000;stroke-linecap:round;stroke-linejoin:round;stroke-miterlimit:10;}
	.st32{fill:none;stroke:#000000;stroke-linecap:round;stroke-linejoin:round;stroke-miterlimit:10;}
	.st33{fill:#86A826;stroke:#000000;stroke-linecap:round;stroke-linejoin:round;stroke-miterlimit:10;}
	.st34{fill:#591633;stroke:#000000;stroke-linecap:round;stroke-linejoin:round;stroke-miterlimit:10;}
	.st35{fill:#314993;stroke:#000000;stroke-linecap:round;stroke-linejoin:round;stroke-miterlimit:10;}
</style>
<g id="Layer_1">
</g>
<g id="Layer_3">
	<path class="st0" d="M190.3,467.3c0.6,0,4.4-2.2,4.4-2.2l20.4-9.4l-27.8-33.3l0.7-1.7l10.1,6.8c0,0,16.5-14.9,18-16.2
		c1.5-1.3,0.6-0.7,1.7-0.7c1.1,0,5.3-2,11.2-6c5.9-3.9,7-5.4,9-7.3s7.4-1.8,9.9-0.7s3.1,3.1,4.2,3.9c1.1,0.7,3.1,0.4,3.9,0.4
		c0.7,0,1.5-0.7,2.4-1.3c0.9-0.6,1.5,0.2,2.2,1.1c0.7,0.9,1.1,0.2,2.4,1.3c1.3,1.1,0,0-0.3,1.7c-0.3,1.7,0.4,0.8,1.6,0.8
		s0.9-0.6,1.6-1.2c0.7-0.5,1-0.7,2.1-1.3c1.1-0.6,0.4-0.9,0.3-3.9c-0.1-3,1.2-2.5,1.2-2.5s0.7-1.2,1.3-2.6c0.6-1.4-0.2-1.6-0.2-1.6
		s-0.2-0.8-0.2-1.8c0.1-1-0.8,0.4-1.9-0.8s-0.7,0.1-2.4,0s-1.6-1-1.7-1.6c-0.2-0.5,0,0,0.5-1c0.5-1-1.2,0.4-2.2-0.2
		c-1-0.6-0.8,0-3.7,0.2c-2.8,0.1-3.5,0-3.5,0L245,349.7c0,0,1.6-1.2,4.9-3.7c-0.5-1.3,2.8-7,2.8-7s0.9-0.1,1.7,0.8
		c0.8,0.9,1.4-1.1,1.4-1.1l2.1-0.4c0,0,1.1-0.1,1.7-0.2c0.6-0.1,0,0,1.7-2.9c1.7-2.9,1.3-2.2,2.2-3.2c0.8-1.1,2.4-2.1,2.4-2.1
		s0,0,1.3-0.7s0,0,1.6-0.4c1.6-0.4,1-0.1,3-0.5c2-0.4,2-0.8,2-0.8s0-1.2,0-2.1s0,0,0,0s0,0-1.6,0s-0.9,0-2.4,0.2
		c-1.4,0.2-0.7,0.1-2.8,0.7c-2.1,0.6-1,0.6-2.5,1.3c-1.5,0.8-3.7,2.1-3.7,2.1s0,0,0.1,1.1s0,0-1.9,0.5c-1.9,0.5-1.6,0.3-4.7,0
		c-3.1-0.3-4.2-2.1-4.2-2.1s0,0-0.7,1.1c-0.7,1.1-0.7,1.2-1.3,2.3c-0.6,1.1,0.6,2.6,0,4.1c-0.6,1.5-0.8,2.1-1,2.7
		c-0.2,0.6,0,0,0.1,1.6c0.1,1.6,0,1.3-0.1,2.3s0,0-0.9,1.8c-0.9,1.8-1.2,0.8-1.2,0.8s-0.9,0.2-1.9-0.5s-4.4-2.6-5.2-3.2
		c-0.8-0.6-6.5-5.3-8.4-6.7s-3.6-2.5-5.6-3.9s-0.8-0.9-1.8-2.7c-1.1-1.9-1.5-4.9-1.5-4.9h-0.8c0,0,0,0-2.3,0s-0.7,0-2.1,0
		c-1.4,0-1.1,0.9-1.1,0.9l-14.1,14.2c0,0-3.9,4-5.6,5.8c-1.7,1.8-10.5,10.8-10.5,10.8s0,3.7,0,6.2c0,2.6,0,5.9,0,5.9l1.9,2.8
		c0,0,0,0-0.8,0.1s0,0-1.6-0.1c-1.6-0.1-0.9-0.2-3.2-0.9c-2.2-0.7-0.8-0.3-3-0.9c-2.2-0.6-1.9-0.3-4.8,0.3c-2.9,0.6-1.7,0.7-2.3,1
		c-0.5,0.3-1.1,1.5-1.1,1.5s-0.8,0.9-1.8,1.1c-1.1,0.2,0,0-3.7-1c-3.7-1,0,0-0.8-0.1c-0.8-0.1,0,0-0.8,0.7c-0.8,0.7-0.9,0.8-3.9,2.4
		c-3,1.6-1.7,0.8-2.4,0c-0.7-0.8,0,0-0.1-1.5c-0.1-1.5,0-1.4,0-1.4s-0.2-1.9-0.7-4.2c-0.6-2.2-0.2-0.5-1.9-2.2
		c-1.7-1.7-1.5-0.4-3.2-0.5s0,0-0.7,0.8c-0.7,0.8-0.6,0.5-2.2,1.5c-1.6,1-0.8,0.7-3.8,3.7c0,0-4-1-2.3,2.6c1.7,3.7,2.5,6.3,3.1,7.7
		s1.3,2.1,0.4,3.5s-1.3,2.6-2.5,4c-1.2,1.4-2.1,2.1-2.3,3c-0.3,0.9-0.9,1.3,0,2.3c0.9,1,3.1,2,2.9,4.2c-0.3,2.2-0.8,3.5-1.8,3.8
		c-1,0.3-2.3,0.4-3.1-0.4s-1.4-0.1-1.7-1.8c-0.3-1.7,1.2-2.5,0-2.2c-1.2,0.3-2.6,2.6-3,3.9c-0.4,1.3-1,3,0,3.4s3.4,0.1,5,0.1
		c1.6,0,3.5,1.2,4.4,3.5c0.9,2.3,2,4,1,5.7c-0.9,1.7-1.6,2-2.6,1.9c-1-0.1-9.1-0.3-10.2,0.5s-2.6,2.2-0.9,4.7
		c1.7,2.5,2.5,3.9,5.1,4.5c2.6,0.5,5.3,0.5,8.7,1c3.4,0.5,6.9,0.4,8.6,1.4s3.1,1.2,2,2.3c-1.2,1.2-4.4,4.8-5.5,6.8
		c-1,2-2.3,5-0.7,7.2s1.3,4.6,5.9,2.3c4.6-2.2,6.8-2.7,7.8-0.8c1,2,2.7,4.2,2.3,6.1c-0.4,2-0.9,3.6,0.7,3.4c1.6-0.2,1.6,0.8,2.5-1.5
		c0.9-2.2,0.3-3.5,2.2-4.3c2-0.8,5.9,0.4,6.9,1.3c1,0.9,1.8,2.1,1,3.7c-0.8,1.6-2.7,3-0.8,3.5s5.4,0,6.8,1.7
		c1.4,1.7,1.9,4.6,1.7,5.5c-0.3,0.9-0.3,0.9-0.3,0.9L190.3,467.3z"/>
	<path class="st1" d="M254.9,536.5l29.9-43.2l6.1-2.6l-1.8-7.5l-29.4-33.3c0,0-0.7-0.9-0.7-2.8c0-1.8,0-1.8-1.5-2
		c-1.5-0.2-2.9,0-2.9,0s-1.3-5.5-1.5-6.6c-0.2-1.1-1.8,0.4-3.3,0c-1.5-0.4-6.2,0.7-6.2,0.7l-28.3,16.5l0.2,1.8c0,0-9.7,4.8-10.3,5.5
		s-1.1,1.5-1.1,3.5s-0.9,5.1-1.5,6.1s-2.2,6.1-2.2,6.1l-12.5-11.5l-3.2-0.6c0,0-0.1,3.4-0.9,4.1c-2.1,1.6-4.3,1.1-5.7,1.5
		s-4.1,0.8-1.8,4.4c2.3,3.5,2.1,3.1,4.7,3.2c2.6,0.1,3-1.3,3.7-0.1c0.7,1.2,1,3.3,0.7,4.6s-0.4,3,0,4.6c0.4,1.6,0.1,4.7-0.7,5.2
		s-6,0.9-7.2,1.2c-1.2,0.3-3.6,1.3-2.8,3.8c1.4,2.2,4.4,3.5,10,2.5c5.6-1,7-1.6,9.8-2.1c2.7-0.5,4-2,5.5-0.4
		c1.4,1.6,2.2,2.7,2.2,3.7c0,0.9-0.1,2-0.8,3.7c-0.7,1.7-1.7,3-3.3,4.3c-1.6,1.3-3.3,0.4-2.1,2.3c1.2,2,3.5,3.5,4,6.3s1,5.2,2.2,6.5
		c1.2,1.3,4,3.4,7.6,2.3c3.5-1,5.6-0.9,5.7-2.9s-0.4-3.5-2.1-4.2c-1.7-0.7-8-3.9-9-5.9c-1-2-5-3.4-0.1-6.8c4.8-3.4,10-7.4,12.4-5.7
		c2.3,1.7,5,6.1,4.2,9.7c-0.8,3.9-3.3,8.1,2.6,7.8c6-0.4,11.3-0.7,12-0.3C236,520.2,254.9,536.5,254.9,536.5z"/>
	<path class="st2" d="M266.7,414.4c0,0-21.8,13.1-21.3,13.7c0.6,0.6,7.5,8.5,7.5,8.5s1.1,2.3,0,2c-1.1-0.3-3.3,0-3.3,0l-4.2,0
		l-2,0.7l-28.3,16.5l-27.8-33.3l0.7-1.7l10.1,6.8l18.7-16.8l2.6-0.6c0,0,7.1-3.8,8.3-4.7c1.3-0.8,6.9-4.9,7.3-5.3
		c0.4-0.4,3.1-3,3.8-3.3c0.7-0.3,3.8-0.9,4.4-0.9c0.5,0,4.4,0.3,5.6,1.2s3.4,3.4,3.4,3.4s0.9,0.5,2.4,0.5c1.5-0.1,1.3,0.3,2.1-0.3
		s1.7-1.1,1.7-1.1l0.7-0.2c0,0,0.6,0.7,1.5,1.3c0.9,0.6,2.4,1.3,2.4,1.3l0.5,0.4c0,0-0.8,0.3-0.8,1.2c0,0.9,1.1,0.8,1.1,0.8
		s-0.4,0.2-0.1,1.5c0.3,1.2-0.3,3,1.1,3.3s1.2-0.1,1.7-0.2c0.5-0.1,0.4-1.5,0.5-0.1c0.1,1.3,0.5,1.5,0,2.2s-0.6-0.5-0.5,0.7
		C266.8,413.3,266.7,414.4,266.7,414.4z"/>
	<path class="st3" d="M310.3,429.4c0.1,0.1-2,5.8-2.2,7.5c-0.2,1.7-1,6.3-2.1,8.1c-1,1.8-3.1,6.7-3.8,7.4c-0.7,0.6-2.3,4.3-2.3,4.3
		s-0.5,1.7,0,1.9c0.5,0.2,1.6,2,1,3.7c-0.5,1.8-1,2.9-0.7,4c0.3,1.1-0.1,2.7,1.2,3.1s1.5,0.3,2.6,1.3c1.1,1,1.7,1.6,1.7,1.6h0.7
		c0,0-2.1,11.3-2.4,13c-0.3,1.7,0.3,2.7-0.7,3s-0.7,0.3-2.2,0.4c-1.5,0.1-3.5,0.4-4.5,0.6c-0.9,0.2-2.1-0.1-2.4,0.9
		c-0.3,1,0,1.3-0.8,1.2c-0.8-0.1-3.1-0.6-3.1-0.6l-1.4-7.7l-28.8-32.6c0,0-1.3-0.7-1.3-1.8s0.6-3.3-0.5-3.4c-1-0.2-4-0.2-4-0.2
		l-1.5-6.6c0,0,0.5-0.8,0.3-1.2c-0.1-0.3-4-5-4-5l-3.9-4.3l10.6-7.1l10.7-6.5c0,0,1.1,1.4,2.7,2.4c1.6,1,1.4,1.1,2.2,1.5
		s0.3,1.4,0.1,2.7c-0.1,1.3-0.1,1.3-0.1,1.3l4.9,3c0,0,0-0.8,0.2,0.6c0.3,1.4,10.4,6.7,10.4,6.7s1.9-1.8,2.3-0.5s0.9,1,1.5,1.3
		c0.6,0.3,1.1,0.2,2-0.4c0.9-0.6,1.6-1,2.4-1.9c0.9-0.8,1.7-2.5,1.7-2.5S308.9,428.7,310.3,429.4z"/>
	<path class="st4" d="M345.5,455c0.1,0.1-11.9,11.3-11.9,11.3l-11.1-12.9l-21.7,9.3c0,0,0-4-0.9-4.2c0.2-2.3,0.8-4,1.6-5.1
		c0.7-1,1-1.3,1.2-1.7c0.3-0.5,2.6-5.4,3-6c0.4-0.7,0.5-0.8,0.8-1.7c0.3-0.9,1.1-4.2,1.3-5.2s0.8-4,1.1-4.7c0.2-0.8,0.7-2.1,0.9-2.9
		c0.3-0.8,0.5-1.7,0.5-1.7s2.5-0.4,3.5-1.8c1-1.4,1.4-1.2,1.4-2.7s0-2,0-2.8c0-0.8-1.3-2-3-3.4c-1.7-1.3-3.8-0.8-2.9-2.3
		c0.9-1.5-0.4-1,1-3c1.4-2,2.4-4.4,3.3-5.3s0.5-1.6,2.1-2s1.3-0.7,1.9-0.1c0.6,0.6,2.7,3.1,3.4,3.1c0.7,0-0.2,0.6,0.7,0
		s1,0.3,1.1-1.1c0.1-1.3-1.4-0.9,0.1-1.3s1-0.3,1.5-0.4c0.5-0.1,0-1.5,0.5-0.1s0.7,1.2,0.6,1.8c-0.1,0.6-0.7,1-0.1,0.6
		c0.7-0.4,1.1-1.9,1.6-1.9c0.5,0.1,0.6,0.2,1.7,0.4c1,0.2,0,0.4,0.9,0.8c0.9,0.5,0.8,0.8,1.3,0.1c0.6-0.7,0.6-0.8,0.8-1.5
		c0.2-0.7-0.1-1.2,0-1.4c0.2-0.2-0.1-1.2,0.5-1.6c0.5-0.4,0.9-0.5,1-0.4c0.1,0.1,0.3-0.1,1,0c0.7,0.1,1.4-0.7,1.1,0
		c-0.3,0.7-0.2,0-0.3,1c-0.2,1-0.7,5.4,0,5.2c0.8-0.2,0.9-0.7,1.2-0.5s0.6,0.4,0.5,0.8c-0.1,0.4-0.4,0.8-0.6,1.9s-0.8,1.3,0.2,1.5
		c1,0.2,1,0.2,1.7-0.2c0.7-0.5,0.9-0.5,1.3-0.9c0.4-0.4,1.3-0.2,1-1.1c-0.3-0.8-0.3-0.8-0.3-0.8s1.6-0.6,1.8-0.9
		c0.2-0.2,0.7-1.1,0.7-0.3c0,0.7,2.2,1.5,0.9,3c-1.4,1.5-0.5,0.5-2.1,1.9c-1.5,1.4-1.7,1.6-2.3,2.6s-0.8,1.5,0,1.7
		c0.8,0.2,0.6,0.5,1.3,0.3c0.7-0.3,1.1-1.2,1.1-1.2s1.3,2.3,1.8,3.3c0.5,0.9,0.9,0.5,0.9,1.5c0,0.9,0.4,0.7-0.5,1.3
		c-0.9,0.6,0.3,0.2-0.9,0.6c-1.2,0.4-0.9,0.2-1.7,0.3c-0.8,0.2-0.9-0.1-1,0.6c-0.1,0.7-0.2,1.6-0.1,2.1c0.1,0.5-0.2,1.2-0.2,1.2
		s-4.7,3.2-5.5,4.4s-0.9,1.8-1.1,2.6c-0.2,0.8,0.2,0.3-0.3,1.1c-0.5,0.8,0.3,1.4-0.6,1.6c-0.9,0.2-1.3,0.3-1.6,1.3
		c-0.2,1-0.5,1.9-0.5,1.9L345.5,455z"/>
	<path class="st5" d="M401.8,467.3c0,0.4,1.6,2.3,1.6,2.3s-7.7,5-9.1,6.2c-1.5,1.2-11.1,8.3-11.3,8.7c-0.2,0.4-7.7,12.6-7.7,12.6
		l-15.8-7.5l-25.8-21.3l-0.1-2.2l11.9-11.3c0,0,2.4,0,1.8-2s-0.8-2.4,0.9-2.1c1.7,0.3,2.2,0.7,3.1,0.2s0.5-0.4,1.5-0.7
		c1-0.4,1.1-0.5,1.6-0.6s-0.2,0.3,1.3-0.6c1.5-0.9,1.5-0.9,1.5-0.9v-0.5c0,0-0.2-1.8-0.3-2.1c-0.2-0.3-1.9-1-1.8-1.9
		c0.1-0.8,0.1,0.4,0.7-1.1c0.7-1.5,0.7-0.7,1.3-2.2s5-5.1,5.7-5.8c0.7-0.7,0.7-1.2,1.8-1.5c1.1-0.3,0.7-0.8,1.1-0.3
		c0.3,0.5,0.3,3.6,0.4,5.9c0.1,2.2,0.1,3.6,0,4.7c-0.1,1.2-0.1,1.3,0,2c0.2,0.7,0.3,0.9,0.3,1.4c0,0.5,0.4-0.6-0.1,1.1
		c-0.5,1.6-0.5,1.6-0.5,1.6s4.1,3.9,4.8,4.5c0.7,0.6-0.2,0.4,2.4,1.3c2.6,0.9,2.6,0.9,3,1.2c0.4,0.3,1.1,0.8,1.1,0.8l0.9,0.6
		c0,0,0.3-0.3,0.7-0.2c0.3,0.1,0.3,0.1,0.3,0.1s-0.4,1.8-0.1,3.4c0.3,1.5,1.1,2.3,2.1,3c1,0.7,1.2,0.9,1.6,0.7
		c0.5-0.2,0.7-0.4,1.5-0.7c0.8-0.3,1.3-0.4,1.3-0.4s1.3-0.6,2.3-0.9c1-0.4,1-0.4,1-0.4s1.3-0.6,1.8-0.5c0.4,0.1,1.4,0.8,2.5,1.7
		c1,0.9,0.4,0.7,1.7,1.3c1.2,0.5,1,0.2,1.6,0.7s1.6,0.3,1.3,0.6c-0.4,0.3-0.2,1.7,0.5,1.9c0.7,0.1,2.1,0.1,2.1,0.1L401.8,467.3z"/>
	<path class="st6" d="M436.6,471.7c0.2,0.1,1.9,2.2,1.2,4.6s-0.6,5.3-2.1,6.6c-1.5,1.3-1.7,1-2.4,2.7c-0.7,1.7-0.8,1.3-1,2.5
		c-0.2,1.1,0,2.4,0,2.4s1.2,9.1,1.6,10.7c0.3,1.6,4.1,3.3,4.1,3.3s2.6-0.7,4.2,0s1.6-0.4,2.9,1.8s5,7,6.6,7.8
		c1.7,0.8,2.4,1.1,2.4,1.1l-11.5,15.9l-67.2-33.9l7.7-12.6l8.3-6.4l5-3.8l5.5-3.7l1.7-1.1l-1.6-2.3c0,0-0.3,0.7-0.2-1.1
		c0-1.7,0.8-2.1,0.2-2.4c-0.5-0.4,0.1-0.3,0.8-1.1s1.2-1.4,1.3-2.3c0.2-0.9,0.4-2.5,0.4-3s-0.1-1.6,0.1-2.5c0.1-0.9-1-2-0.1-2
		s1.9-1.3,1.9-1.3l0.4-0.8c0,0,4.8,3,5.7,3.5s1.8,0.1,2.4,0.7c0.6,0.6,0.7,0.6,1.2,1.2c0.5,0.6-0.4,1.1,0.3,1.4
		c0.7,0.4,1.1,0.5,0.9,1.2c-0.2,0.7,0.2,0.3-0.2,1.2c-0.4,0.9-0.9,0.5-1.1,1.3c-0.3,0.8-0.5,1.2-0.6,1.8c-0.1,0.6-0.1,0.6-0.1,1.3
		s0,1.2,0,1.7c0,0.6-0.2,2.1-0.2,2.1s9.7,2.6,11.1,2.9c1.4,0.2,1.2,0.4,2.4,0.3c1.2-0.1,1.1-0.1,2-0.3c0.8-0.2,0.5-1.4,1-0.7
		c0.6,0.7,1.2,1,1.2,1S435.3,471.1,436.6,471.7z"/>
	<path class="st7" d="M454.7,461l3.6,28.6c0,0,16,18.2,24.3,23.7c8.3,5.5,18.3,12.9,18.1,13.2c-0.2,0.3-20,25.7-20,25.7l-38.4-21.1
		l11.9-15.9c0,0-1.3-0.3-2.4-1.1s-5.3-5.7-6-6.7c-0.7-1-1.5-2.4-2.1-2.5c-0.6-0.1,0,0-1.4-0.3c-1.5-0.3-3.8,0.2-4.2,0
		c-1.5-0.8-3.8-1.7-4.1-3.3c-0.3-1.6-1.2-7.9-1.3-9s-0.4-4.1,0-4.9c0.4-0.8,0-0.8,1-2c1-1.3-0.3-1.1,1-1.7c1.2-0.6,2.2-1.3,2.7-4.3
		c0.6-3,0.9-4.6,0.5-5.6s-1.1-2-1.1-2s2,0.1,2.8-0.4c0.7-0.5,2.6-1.7,3.4-2.2c0.7-0.5,7.1-4.6,7.4-4.8
		C450.4,464.2,453.8,461.6,454.7,461z"/>
	<path class="st8" d="M508.3,440.9c0.1,0.3,1.3,3.1,0,4.9c-1.3,1.8-1.6,2.5-2.8,3.4c-1.1,0.9-2.7,2.7-2.7,2.7s-1,0.1-0.7,1.8
		c0.3,1.7,0.1,3.2,2.1,4.8c2,1.6,4.8,5.5,5.5,5.7c0.7,0.2,3.8,4.3,3.8,4.3s1.1,1.3,0.6,3s-1.1,3-1.6,3.6c-0.4,0.6-6.5,7.9-6.5,7.9
		s-2.8,1.6-4,1.1c-1.2-0.4-4.6-1.3-4.4-2c0.2-0.6,2-2.8,2-2.8l-5.3-10.5c0,0-16,17.9-16.6,18.9c-0.6,0.9-0.5,2.8-0.5,3.2
		c0,0.4-1.2,6.6-1.2,7.2s-1,8.9-1,8.9l-16.8-17.5l-2.8-22.8l-0.7-5.8c0,0,1.5-1.3,2.2-2.3c0.7-1,0.9-1.1,0.9-2.1
		c0-1-1.5,0.5-0.2-1.8c1.3-2.3,0.9-1.2,1.5-2.7c0.6-1.5,0.6-0.9,0.6-1.5c0-0.6-0.7-1.2-0.4-2.6c0.3-1.5-0.7-1.8,0.8-2.4
		c1.5-0.5,1.5-0.1,2-1.1c0.5-1,0.6-1.3,0.6-1.3s-1.2-5.7-0.4-6.8s0.7-0.7,0.8-1.4c0.1-0.7-0.7-0.8,0.1-0.7c0.7,0.1,5.3,3,6.4,4.8
		c1.1,1.7,0.8,1.9,1.6,2.1c0.9,0.2,0.5,0.6,0.9,0.2c0.4-0.5,1.4-1.2,1.4-1.2s0.3-0.1,1,0c0.7,0,2.7,0.6,3.2,0.8s1.1,0.5,1.6-0.1
		s0.5,0.5,0.5-0.6s-0.1-1.6-0.3-1.9c-0.3-0.3-0.8-0.6-1.6-1s-1.2-0.4-1.1-0.9c0.1-0.5,1.3-2,1.3-2s0-0.6,1.3-1.4
		c1.3-0.8,0.8-0.7,1.8-1c1-0.2,0.9-0.2,1.8-0.4c0.9-0.2,0.5-0.9,1.1-0.8s0.9,0,0.9,0s6.8,6.8,8.3,8c1.4,1.1,1.7,1.3,2.7,1.4
		c1,0.1,1.2,0,2.1,0.2c0.9,0.2,1.4,0.3,1.4,0.3s1.3,0.5,2.8,0.6c1.4,0.1,1.5,0,2.1,0.1c0.7,0.1,0,0.1,1,0.2c1,0.1,1,0.1,1,0.1
		S508.1,440.1,508.3,440.9z"/>
	<path class="st9" d="M576.1,458c0,0-3.3,8.7-4.9,10.1c-2.6-1.2-2.6-1.2-2.6-1.2s-7.5-10.2-27.3-18.2c-3.3-1.1-7.6-1.6-9.3,0
		c-1.8,1.6-4.7,5.2-5.9,5.7c-1.2,0.5-8.6-6.7-9.2-6.7c-2.4,1.2-5.7,6.2-5.9,6.5c-0.2,0.3-1.6,1.3-2.6,1c-1-0.3-1.2,0.3-2.3,0.1
		s-3.8-1-3.8-1s-0.6-1.5,0-2c0.6-0.5,0.6-0.5,1.2-1.1c0.6-0.6,1.1-1,2.2-2.1s1-0.9,1.9-2.2c0.9-1.2,1.3-2.2,1.3-2.2s0.2-0.3,0.1-0.9
		c0-0.6-0.6-3-0.6-3s0.1,0.1,0.2-0.7s0-0.5,0-1.2c-0.1-0.7-0.1-0.7-0.1-0.7s-0.5,0.3,0.5-0.4c1-0.7,1.4-0.5,1.6-1.2
		c0.2-0.7,0.1-0.1,0.3-1.1c0.3-0.9,1-3.5,0.9-3.9c-0.1-0.4-0.7-0.6-0.6-0.9c0.1-0.3,0.2,0.2,0.5-0.5c0.3-0.7-0.3-0.5,0.7-1.1
		c1-0.6,0.3-0.3,1.6-0.8c1.2-0.5,0.5-0.3,1.7-0.6c1.1-0.3,0-0.5,1.8-0.4s0.9-0.3,1.8,0.1c0.8,0.4,2.8,2.6,3.4,2.9s1.3,1,2.4,1.1
		s0.3,0.3,1.1,0.1c0.8-0.2,1.4-0.4,1.4-0.4l1.3-0.7l0.5-0.6l0.9-1c0,0,0-0.2,0.7-0.4c0.7-0.2-0.4,0.7,0.7-0.2c1-0.9,1-0.9,1-0.9
		s-1-0.3-1-1.9c0-1.6,0-1.5,0-2.4c0.1-0.9-0.5-0.5,0.1-0.9c0.6-0.4,0-0.9,0.9-1s0.8-0.5,1.7,0c0.8,0.5,0.7-0.3,1.5,0.3
		s0.5,0.8,0.7,0.6s0.6-0.6,0.6-0.6s0.8,0,1-1.2c0.2-1.2-1.1-2.8-0.5-3.3c0.6-0.6,1-0.7,1.7-0.9c0.8-0.3,0.9-0.4,1.4-0.7s0.2-1.1,1,0
		s1.3,1.8,1.9,1.8c0.6,0.1,0.8-0.6,0.9,0.5s0,0.5-0.3,1.6c-0.3,1.1-0.2,5.3-0.6,6.9c-0.4,1.6,0.2,2.5,0.9,2.9s1-0.4,1.5,0.4
		c0.5,0.8,1.1-0.5,0.8,0.9c-0.3,1.4,0.4,0.5,0.1,1.4s0.7,1.8,0.9,2.1s0.3,0.4,0,1.7c-0.3,1.3-0.7,2.3-0.7,2.3s10.3,6.8,10.7,7
		c0.4,0.3,1.2,1.9,1.9,2.5c0.8,0.6,3,1.8,3.5,2c0.5,0.2,0.4-0.5,1.1,0.7c0.7,1.2,5,4.1,5.6,4.5s2.3,1.5,2.5,1.5
		c0.3,0,0.8-0.1,1.3-0.4s4.3-3.7,5-4.4c0.8-0.7,1.6-1.4,2.4-2.1c0.8-0.7,0.7-1.1,1.4-1.5c0.7-0.4,1-0.6,0.8-1.2
		c-0.2-0.6-0.8-0.8-0.7-1.3s-0.8-0.1,0.2-1c1-0.8,0-0.2,1-0.8c1-0.6,0.9-1.2,1.1-1.2c0.2,0,0.9-0.4,1.5,0.9c0.5,1.3,0.4,1.9,1,1.6
		c0.6-0.3,0.6,0.1,0.9-0.7s0.2-0.7,0.4-1.5c0.2-0.8,0-0.8,0-1.4c0-0.6-0.3,0.3,0-0.6s-0.8-0.6,0.3-0.9s1.5-0.5,1.5-0.5
		s0.2,0.1,0.8-0.3c0.6-0.4,0.2-0.5,0.7-0.7c0.5-0.2,0.7-1.7,0-2.7c-0.7-0.9-2.1-0.6-2-1.4c0.1-0.7-0.6,0.4,0.3-1
		c0.9-1.3,1.5-2,1.5-2l0.6-0.4c0,0,0.7,0.7,1.2,0.8c0.6,0.1,0.7-0.3,1.1,0.1c0.3,0.4-0.6,1.1,0.3,0.4c0.9-0.6,0.8-0.4,1.2-0.8
		c0.4-0.4,1-0.6,1-0.6s0.8-1.7,0.8-2.2s0.1-0.3-0.3-1.1c-0.4-0.8-1.4-0.7-1.3-1.1c0.1-0.4-0.3-0.8,0.3-1c0.6-0.3,1.1-0.7,1.4-0.2
		s-0.1,0.4,0.7,0.6c0.8,0.2,0.3,0.5,1.2,0.2c0.9-0.2,0.9-0.2,0.9-0.2l0.8,0c0,0,1.7-2.5,1.7-2.8c0-0.2,0-5.1,0-6.3
		c0-1.2-0.1-3.2-0.1-3.2l0.1-1.3h2.7l4.4,0.8c0,0,1,0.5,1.8,1.9s0.6,1,1,1.6c0.4,0.6,1,0.9,1.2,1.8s0.3,1.6,0.5,2
		c0.2,0.4-0.8,0.1,0.2,0.4s-0.1,0.5,0.9,0.3c1-0.2,0.8-0.1,1.3-0.2c0.6-0.1,0.8-0.3,0.8,0.3c0,0.6,0.3,3.3,0,3.5
		c-0.3,0.3-0.2,1-1,0.9c-0.8-0.1-0.9-0.1-1.4-0.1c-0.5,0-0.6-0.1-0.8,0.1c-0.3,0.2-0.4-0.4-0.6,0.6c-0.2,1,0.2,0.6-0.2,1
		c-0.4,0.4-0.4,0.4-0.4,0.4l-0.8,0.8c0,0-1.4-1.1-1.6-0.5c-0.3,0.7-0.5,0.8-0.8,1.8c-0.3,1-0.7,1.6-0.7,1.6s-0.7,1.5-1,1.7
		s-1,0.3-1.6,1.5c-0.6,1.2-0.3,1.8-1.4,2.1s-1.7,0.9-2.2,1.5c-0.5,0.6,0.3,0.6-1,1.5s-1,2-2.1,1.5c-1.1-0.5-0.2-0.5-1.4-0.8
		c-1.3-0.3-1-0.5-1.8,0.1s-1.2,1.2-2.5,2c-1.3,0.8-1,1.4-2.3,1.9s-2,0.8-2,0.8l-1.4,0.8c0,0-1.2,0.8-2,1.4s0.4,0.4-0.8,0.6
		c-1.2,0.3-1.6,0.8-1.6,0.8l-1.7,1.7c0,0-0.7,0.8-1.9,1.7c-1.3,0.9-1.4,1.2-2.5,1.9c-1.1,0.8-1.3,1-1.5,1.3
		c-0.2,0.3-0.8,0.7-0.4,1.2C576.8,456.6,576.4,457.2,576.1,458z"/>
	<path class="st10" d="M580.9,460.4c0,0-0.8,6.7-1.1,8.4s-0.3,3.3-0.5,4.8c-0.3,1.5-0.5,1.9,0.4,3s0.4,0.8,1.2,1.9
		c0.8,1.2,1.4,1.5,1.4,1.5h1.4c0,0,0.5,0.3,0.8,1.2s0,1.8,0,1.8s0.3,1.9-0.3,2.2c-0.7,0.3-1.7,0.8-2.3,1.8s-1.6,1.5-2.8,2.9
		c-1.2,1.4-1.4,1.5-2,2.4c-0.7,0.9-1.1,1.5-1.1,1.5l-0.8,1.3c0,0,1.8,3.6,5.8,6.7s7.5,6.1,7.5,6.1l4.5,2.3c0,0,2.6,1.3,3.1,1.1
		c0.5-0.3,1.2,0,1.2,0s-0.6-1.1,0.9,0.6s1.4,1.9,2.2,2.5s0.5,0,1.2,1.1c0.7,1.1,1.3,1.6,0.7,1.9c-0.6,0.3-1.5,1-2.2,1.5
		c-0.7,0.5-0.3,0.6-2.1,1.8c-1.8,1.2-2.6,2.3-3.2,2.6c-0.6,0.3-1.4,0.5-1.8,0.9c-0.3,0.4-0.9,6.1-1.2,7.7s-0.3,2.9-1.1,3.2
		c-0.8,0.3-10.2-6.6-10.2-6.6s-0.7,0.9-0.7,1.5c0,0.6-1.6,1.3-2.4,1.1s-1.5-0.3-2.4,0.1s-0.6,0.5-1.9,1.4s-1.5,1.3-2.7,2
		c-1.2,0.8-3.5,2.9-3.5,2.9s-6.6,1.1-6.6,1.6c0,0.5-0.9,2.9-0.9,2.9s-1.3,2.6-1.6,2.9s-0.6,1.6-1.1,1.8c-0.5,0.3-30-22.5-30-22.5
		l5.9-21.7l9.3,3.4c0,0,15.3-33.3,15.4-33.6c0.1-0.3,0.7-0.8-0.2-2.3s-1.8-3.6-2.9-5.4c-1.1-1.8-2.5-4.2-2.5-4.2l-1.5-4l-1.7-4.4
		l15.9,9.3c0,0,2.5,1.5,2.7,2.4c0.2,0.9,0.3,1.9,0.6,2.3c0.3,0.4,0.6,0.8,0.6,0.8l2.6,1.2c0,0,2.4-5.1,2.4-5.6
		c0.1-0.4,0.8-3.7,0.8-3.7l0.6-1.9l0.8-0.8L580.9,460.4z"/>
	<path class="st11" d="M580.9,460.4c-0.1,0.8-1.8,15.1-1.8,15.1s1.2,0.8,1.8,2.3c0.5,1.4,1.4,2.2,1.4,2.2s0.7-1.2,1.4,0
		s1,0.7,0.9,1.8c-0.1,1.1,0,1.3,0,1.9c0,0.6-0.4,1.4-0.4,1.4s-1.4,0.6-1.9,1.2s-1.4,1.5-2.3,2.5s-4.8,6.2-4.8,6.2s3.1,4.3,3.9,5.1
		s9.3,7.7,9.3,7.7l4.5,2.3c0,0,1.8,1,2.5,1s1.8,0.1,1.8,0.1l3.1,3.1l1.2,1.1l0.7,1.9c0,0-5.1,4-6.3,4.9s0.6,0-1.2,1
		c-1.8,0.9-1.8,0.9-1.8,0.9l-2.3,10.9l-1.3-0.5l-8.9-6.1c0,0-0.8,1.9-1.2,2.1c-0.4,0.2-1.5,0.4-2.9,0.5c-1.3,0.1-2.1,0.6-2.1,0.6
		s-6.5,5.6-7.4,5.8s-6.6,1.6-6.6,1.6s-1,3.1-1.4,3.8c-0.4,0.8,7,5.9,7,5.9l-2.1,3.4l5,3.3c0,0,11.5-13.5,11.7-12.5
		c0.2,0.9,2,2.1,2,2.1l-4,5.1c0,0,5.8,4,5.5,4.5s0,4.8,0,4.8l9.4-2.3l1.9,8.7h2.6l2.8-3.6l1.4-15.5l6.7,8.4c0,0,4.4,4,4.8,4
		s2.9-1,2.9-0.6c0,0.4,0,3.4,0,3.4l1.4-0.1v-5.5l3.8-1.7l2.1-1.5l3.2-2.3l3.6-1.2l-3.2-8l1.4-1.1c0,0-2.4-6.2-1.9-7.9
		c0.5-1.7,0-2.2,1.2-3.1c1.3-0.9,1.5-1,1.8-1.4s0.7,0,0.8-0.6c0.1-0.6-1.8-3-1.6-5.4c0.3-2.3,0.6-2.2,0.3-3.8
		c-0.3-1.6-0.9-1.6-0.6-2.9c0.3-1.3,0.3-1.3,0.3-1.3s-0.9-2-1.3-3.1c-0.4-1.1-1.3-3-1.6-4.1c-0.3-1-0.6-2.3-0.7-2.7s0.2-2,0.2-2
		s-3.8-1.2-4.4-1.4c-0.6-0.2-0.7-0.7-0.5-2.5c0.2-1.8,0-2.3,1.1-3.8c1.1-1.5,2-1.5,1.7-2.3c-0.3-0.8-1.4-2.6-0.2-5.2
		c1.2-2.6,1.6-2,1.9-3.9s0.2-2.3,0.1-3.4s-4.9-2.3-6.1-2.7c-1.2-0.5-4.9-1.7-6.5-2.1c-1.7-0.4-13.5-3.2-14.7-4s-8.8-3.7-11-5.5
		C584.8,463.5,580.9,460.4,580.9,460.4z"/>
	<path class="st12" d="M541.1,567.2l13.7-21.8l2.1,1.4l2.2-3.8l7,5.9l-2.1,3.4l5,3.3c0,0,9.7-11.8,11.7-12.5c2,2.1,2,2.1,2,2.1
		l-4,5.1l5.5,4.5v4.8l9.4-2.3l1.9,8.7h2.6l2.8-3.6l1.4-15.5l6.7,8.4l4.8,4l2.9-0.6v3.4l1.4-0.1v-5.5l3.8-1.7l5.2-3.9l3.6-1.2l0,5.3
		c0,0,3.5,2.9,5.8,4c2.2,1.1,3,1.2,3,1.7s0,4.3,0,4.3s6.2,1.7,7.7,1.5c1.5-0.1,22.1,0.7,22.6,0.7s-0.7-1.2,0-1.4
		c0.7-0.1,4.5,0,4.5,0s2.6-0.4,3.7-0.6c1.1-0.1,1.2,0.1,2.5,0.6c1.2,0.4,3-0.3,3.6,0s1.7-2.1,2.1-2.9c0.4-0.8,0.7-1.7,1.9-2.8
		c1.2-1.1,2.5-1.9,2.5-1.9s2.1,2.8,2.5,3s-0.8,2.3-1.2,2.5c-0.4,0.1-1.7,1.1-1.9,0.6c-0.3-0.6-1-1.5-1.4-0.8
		c-0.4,0.7-1.7,2.2-0.6,2.3c1.1,0.1,1.8,1,1.8,1.4c0,0.4,1.4,2.6,1.5,4.1c0.1,1.5-0.6,2.9-0.6,2.5s-4-4.3-4.8-3.9
		c-0.8,0.4-4.5,3.9-4.5,3.9l-3.6,3.8l-7.6,1.9l-4-2.9l-25.5,1l-19.9-9.8c0,0-18.4,0.8-18.4,1.5c0,0.7-1.7,18.2-1.7,18.2l-7,2.1
		l-2.3,4.5c0,0-5.9-1.7-6.8-2.5c-0.8-0.8-13.4-3.4-13.4-3.4l-4-1.1L555.5,575l-4.1,0.3L541.1,567.2z"/>
	<path class="st13" d="M596.7,642.8c0,0,5.7-7.7,6.4-8.8c0.7-1.1,4.5-16.4,4.5-16.4l-4.5-2.2c0,0,0.4-3,0-3.3s-7.6-6.2-7.6-6.2
		s-0.6-2.8-0.7-4.4s-3.5-7.3-3.5-7.3l2.3-4.5l7-2.1c0,0,1.2-12.8,1.7-18.2c0.1-1.1,18.4-1.5,18.4-1.5l19.9,9.8l25.5-1l4,2.9l7.6-1.9
		l5.6-5.6l2.6-2.1c0,0,0,0,4.8,3.9c1.2-2.8-0.2-4.8-1-6.6c-0.8-1.9-2.3-1.4-2.3-1.4l1.1-2.3c0,0,1.4,0.8,2.1,0.9
		c0.7,0.1,2.6-2.6,2.6-2.6l-2.6-3.6c0,0,4-5.2,5.9-7c1.9-1.8,4.5-1.9,4.5-1.9c0.7,0.6,6.2-0.4,7.3-1.5c1.1-1.1,1.9-1.4,4.7-2.1
		c2.8-0.7,6.6-1.9,8.1-2.7s6.2-3.7,7.6-5c1.4-1.2,5-2.1,6.5-1.9c1.5,0.1,14.2,4.4,17,6.1s4.8,0.8,4.8,0.8s10.3,8.3,10.2,8.7
		c-0.1,0.4-2.5,2.1-4.3,3.9c-1.8,1.8-1.7,2.8-2.1,3.6c-0.4,0.8,2.2,1.8,4.7,2.5s11,2.5,11.7,3.4c0.7,1-0.8,1.2-2.2,2.5
		c-1.4,1.2-25.1,19.6-25.1,19.6l-15.2,12.4c0,0-0.1,2.1-1.4,3.9c-1.2,1.8-7.3,6.9-8.4,8.5c-1.1,1.7,0.3,2.8,0.7,4.3
		c0.4,1.5,1.8,2.3,4.4,3.3s5.5,1,7.3,1.1c1.8,0.1,6,0.4,7.2,1.2c1.2,0.8,13,6.8,13.1,7.3c0.1,0.6-0.4,1.4-1.1,2.3s-2.8,5.8-3.7,6.8
		s-1,2.2-1,2.2l12.7,6.9l-0.7,16.3c0,0-4,0.3-4.5,0.3c-0.6,0-1.7,0-3.3-1.4c-1.7-1.4-5.5-4.3-5.5-4.3h-1.5l-2.6,1.8l0.3,1.8
		c0,0,0,0,0.7,1.2c0.7,1.2,0.1,1,0,2.6s-0.3,1.4-0.8,2.8c-0.6,1.4-0.8,1-1.2,0.4c-0.4-0.6-2.2-2.5-3-3.2s-1.1-0.4-2.5-0.4
		c-1.4,0-1.5,0.4-3.2,1.4c-1.7,1-1.8,0.6-2.8,0.6s-0.6-2.9-0.6-2.9s1-0.7,1.2-1.2c0.3-0.6,0.4-0.7,0-2.3s0,0-1.8-0.7
		c-1.8-0.7-2.6,0.7-2.6,0.7s-2.2,1.8-4.1,3.3c-1.9,1.5-1.1,1.2-1.9,2.3c-0.8,1.1,0.6,1.8,0.6,2.6s-0.6,1.7-0.6,1.7s-3.8-0.2-4.7,0.2
		c-1,0.4-8.1,0-8.1,0s-1.6-0.7-3-1.4c-1.4-0.7-13.9-7.2-13.9-7.2l-2.9-0.3l-8.1-0.4c0,0-1.3-2.4-0.7-5.1c0.6-2.7-0.5-5.1-3-4.6
		c-2.2,0.7-1.9,2.3-2.6,4.4s-2.1,3.6-3.8,3.4c-1.7-0.2-3.4,0.2-3.2-4.2c0.1-4.4-0.8-10.3-6.3-7.5c-5.3,3-9.9,6.6-8,9.9
		c2.2,3.4,4.2,7,2.9,7.2c-1.3,0.2-5.6-1.9-6.8-2.6c-1.3-0.7-7-2.2-10.2,0.6c-3.6,3.2-4.9,4.4-5.7,3.4c-0.8-1-2.3-3.2-4.3-4.4
		c-2-1.2-9.7-2.1-11.7-2.4c-2-0.3-8-2.1-10.5-1.7c-2.4,0.2-2.2-1.9,0.1-3.1c2.3-1.3,4.8-3.5,4.4-6s-2.9-5.1-7.1-3.6
		s-5.7,2.5-8.9,0.7C596.2,644.1,596.7,642.8,596.7,642.8z"/>
	<path class="st14" d="M133.3,394.6c-1.3,0.9-1.7,0.4-2,2.7c-0.1,2.2-0.9,3-2.5,7.4c-1.4,4.6,2.9,4.4,4,3.4c1.2-1,2-1.6,3.5-1.2
		s3.3,4.8,3,6.6c-0.3,1.8-2.3,0-3.9,0.8c-1.6,0.7-3.3-0.2-6.1-0.6c-2.7-0.3-4.4,1.2-4,8.1c0.8,7,6.4,8.1,7.3,8.6
		c0.9,0.5,0.8-0.5,4.4-1.4c3.7-0.9,5.9,1.6,7.6,2.5c1.7,0.9,3.4-0.3,3.8,0.5c0.5,0.8-0.9,3.2-2.7,4.8s-2.2,0.1-5.5,1.2
		c-3.3,1.2-0.3,3.6,0,7.5c0.3,3.9,0.8,2.8,3.4,2.3s3.6,0.8,4.2,2.5c0.7,1.6,2.5,1.3,7.7-1.6c5.4-2.8,5.5,3.2,5.1,5.7
		c-0.5,2.5,0.8,2,2.8,3.3c2,1.3,3.9,0.3,4.7-1.9s2.3-4.1,4.6-3.7c2,0.5,2.3,2.7,0.8,6.5c-1.5,3.8,0.7,1.5,3.3,2
		c2.6,0.5,5.1,1,4.9,5.1c-0.1,4.1-1.4,3.5-3.6,4.3c-2.2,0.8-3,0.3-5.4,1.6s-0.1,3.8,1.5,7c1.6,3.3,6.2,3.4,7.8,4.1
		c1.6,0.7,0.2,2.1,0.7,5.7c0.5,3.6,0.1,3.5-0.7,3.9c-6.3-1.2-9.4,1.5-10.4,4.9c-1.1,8.6,6.2,8.4,6.2,8.4l-8.6,11
		c0,0,3.5,4.7,3.6,6.8c0.1,2-5.6,5.9-5.6,5.9l-76.7-26.6l-18.2-5.9c0,0-4.7-3.7-8-4.3c-3.3-0.6-6.5-1.8-9-2.7c-2.5-0.8-9.6,0-9.6,0
		s4.3-9.6,3.9-10.4s-3.3-1.6-5.1-1.8s-2.7,4.5-2.7,4.5l-7.4-5.5l1.6-4.1c0,0,6.3,0,7,0s0.4-2.3,0.6-3.7c0.2-1.4,0-3.1-1.4-8
		c-1.4-4.9-2.3-7.6-3.3-13.1c-1-5.5,0.2-7.2,0.8-9.6c0.6-2.4,1.4-5.3,1.4-5.3s-7-3.7-6.8-4.3c0.2-0.6,1.8-4.1,1.8-4.1l21.1,8.4
		c0,0,0.4-2.1,1-4.6s6.5-23.3,9.4-42.6c-3.7-3.7-3.5-9.8-3.5-10.4s8.2-13.5,12.1-20.3c4.7,1.4,30.5-3.5,30.5-3.5l9.6,6.5h7.2
		l17.2,8.6c-0.3,2-1.3,2.3-2.8,3.7c-1.6,1.4-0.8,1.6-0.7,3.5c0.1,2,1.2,3,1.6,5.7c0.4,2.7,0,6-1.6,9.4c0,0-1.3,2.2-1.4,3
		s0.3,1.6,1.6,2.6c1.3,1,2.9,2.1,2.5,3c-0.4,0.9-1.8,2.6-2.1,1c-0.3-1.6-1.2-2.2-2.2-2.9C134.6,395,134.2,394,133.3,394.6z"/>
	<path class="st15" d="M167.3,529.3c0,0,6.1-4.2,5.6-5.9c-0.5-1.7-3.6-6.8-3.6-6.8l8.6-11c0,0,1.6,2,3.2,0c1.6-2,1.6-3.2,2.9-2.4
		c1.3,0.8,4,2.1,6.1,1.4c2.1-0.7,1.7-0.4,3.4-1.7s1.8-2.6,3.5-2.2c1.7,0.4,3.1,1.2,3.3,2.1c0.1,0.9,0.3,2-1.2,3.4s-1.4,1.7-3.4,3
		c-2,1.3-4.6,3.4-1.4,5.8c3.1,2.3,5,4.8,4.8,7.4c-0.1,2.6-0.1,4.6,2.7,5.9c2.9,1.3,7.2,2.1,10.8,1c3.7-1,5.2-3.1,5.2-4.7
		c0-1.6-2-4.3-3.5-5.3c-1.6-1-8.5-4.8-8.9-5.9c-0.4-1-0.9-3,1.3-3.4c3.9-2.9,5.7-5.7,7.3-5.5c1.6,0.3,3.7,2.3,4.3,4.8
		c0.7,2.5,1.6,3.7,0,4.8c-1.6,1.2-3.4,4.6,0.9,6.8c4.4,2.2,9,1.8,11.9,1.2c2.7-0.5,19.2,13.8,20,14.3c0.8,0.5,11.7,9,13,9.4
		c1.3,0.4,5.7,0.9,7.8,1.4c2.1,0.5,2.8,4,1.7,6.3c-1.1,2.2-4.4,5,0,5.2c4.4,0.3,8.5,0,9.4-1.3c0.9-1.3-1-4,3-3.9
		c1.7-0.4,1.4-1.6,1-2.1c-0.4-0.5-1.2-4.8,1.4-4.4c2.6,0.7,2.6,2.1,3.4,3.3s1.4,2.3,0.5,4c-0.9,1.7-3,14.2-2.2,15.5
		c1.2,1.6,3.2,3.7,2.7,3.8c-0.6,0.1-9.6,10.6-9.3,11s0.8,7.3,0.8,7.3l-9.4,0.8c0,0-12.8-9.3-14.5-8.6c-1.7,0.7-3.8,3-5.5,3.9
		c-1.7,0.9-3.7-1.4-5.5-2.9c-1.8-1.4-7.2-1.2-10.7,0.5c-3.5,1.7-12.1,8-15,11.1c-2.9,3.1-8.3,9.8-9.5,10.8c-1.2,1-3,3.9-2.3,0
		c0.7-3.9,0.4-8.3-1-10.4c-1.4-2.1-2.5-2.2-4.7-0.9c-2.2,1.3-3.8,2.9-4.7,2.9s-9,1.2-8.9-0.4c0.1-1.6,0.4-5.2,0.4-5.2
		s-6.4,2.1-7.6,1.6c-1.2-0.5-2.7-5.3-2.5-6.8c0.2-1.4-12.9-9.9-13.7-10c-3,2.7-6,2.5-8.1,1.3c-2.1-1.2-4.7-1.7-4-3
		c0.7-1.3,4-7.6,4.3-8.1c0.3-0.5-0.1-17.9-0.1-17.9s2,0.3,3-0.1s0.7-6.7,1.4-8.5c0.8-1.8,1.6-4.1,2.5-5.5c0.9-1.4,1.3-2.5,0.7-2.7
		c-0.7-0.3-3.7-0.7-3.4-1.7C165.8,531,165.4,529.3,167.3,529.3z"/>
	<path class="st16" d="M25.8,487.3c0.6-0.2,18,10,19.4,9.8c1.4-0.1,5.7,0.7,5.7,0.7s25.3,10,27.3,10.3c2,0.3,28.3,8.2,28.3,8.2
		s28.7,8.2,29.6,8.2s7.8,2,7.8,2s19.8,7.6,20.3,7.8c0.5,0.3,4.6,1.3,4.6,1.3l-3,6.4l-1.4,8.5c0,0-0.7,0.1-3,0.1
		c0.2,14.2,0.1,17.9,0.1,17.9l-2.5,4.7c0,0-14,1.3-15.6,0c-1.6-1.3-1.3-2-2.7-2.8s-1.8-0.5-2.9-1c-1-0.5-0.5-9.7-0.5-9.7
		s-5,1.7-5-0.5c0-2.2,0.3-3.9-0.9-4.1c-1.2-0.1-2-0.5-2.7-1.3c-0.7-0.8-1.7-0.8-2-0.3c-0.3,0.5-1.4,3.3-1.4,3.3s-10-5.5-9.7-6.7
		c0.4-1.2,1-1.7,1-2.1s-4.3-5.6-5.2-4.8s-2.3,3.8-3.3,3.9s-1.6-1.2-1.6-1.2s-1.8-8.5-3.7-7.2c-2.6,2.5-6.9,6.8-9.1,6.1
		c-2.2-0.7-5.2-1.7-6.7-2.6s-2.6-0.7-2.6-0.7s-1.4,3.1-2.6,2s-3.9-2.2-1.8-4.2s1.8-0.1,2.1-2c0.3-1.8-0.7-2.1-1.4-2.3
		c-0.8-0.3-0.8-2.1,0.4-3.3c1.2-1.2,2.2-3,1.2-2.6c-1,0.4-2.5,0.6-2.9,1.2s-2.5-1.8-4.7-1.2c-2.2,0.5-5.7,0.9-6.4-0.8
		c-0.7-1.7-2.6-3.3-4-4.4s-6.5,0.5-7-0.5c-0.5-1-0.9-6.7,0.4-9.8c1.3-3.1,2-4,1-4.6c-0.9-0.5-9.4,0.5-11.5,0.8
		c-2.1,0.3-5.1,0.7-7,0.9s-4.3,2.3-4.4,0.3c-0.1-2.1-0.2-5.2-1.4-7c-1.1-1.8-3.7-2.9-5.2-3.5c-1.4-0.6-1.6-0.1-2.9,0.9
		c-1.3,0.9-3.3,0.6-4.4-0.9s-3.5-2.1-2.3-3.8S22.1,488.7,25.8,487.3z"/>
	<path class="st17" d="M502.2,454.4c0,0,3,1.9,7.1,0.9c7.4,5.9,8.4,5.2,8.3,7.4c-0.2,2.2,0.2,7.2,1.7,8.4s1.7,3.4,0,6.2
		s-8.9,15.8-11.6,17.1c-2.7,1.3-4.4-0.7-5.7,1.7c-1.3,2.4-3,9.1-4.4,8.7c-1.3-0.3-6.4-6.8-7.4-5.4c-1,1.4-7.7,13.9-7.7,13.9
		l-7.5-6.2c0,0,1.1-9.9,1.6-12.4s1.2-6.9,1.2-6.9l16.6-18.9l5.3,10.5l-2,2.8c0,0,3.4,2,4.4,2s3.2-0.2,4-1.1c0.8-1,6.9-8.2,7.5-9.8
		s0.1-5-1.9-7c-2-2-6.4-6.5-7.5-7.7C503,457.3,500.8,455.9,502.2,454.4z"/>
	<path class="st18" d="M544.5,450.1c0.3,0.2,5.6,12.3,5.6,14.9s-3.7,7.1-3.7,7.1s-7.2-3.5-7.2-3.3s-38.7,57.7-38.7,57.7l-18.1-13.2
		c0,0,6.7-13.9,7.7-13.9s6.4,4.1,7.4,5.4c1.7-2.2,3.3-7.7,4.4-8.7c1.1-1.1,1.1-1.1,1.1-1.1l3.6-0.2c0,0,2.4-0.4,6.9-7.9
		c4.5-7.5,6.7-11.2,6.8-12.3c0.1-1,0.1-1.1-1.1-3.5c-1.5-3.9-1.5-2.6-1.7-6.1c-0.1-3.5-0.1-3.5-0.1-3.5l-8.1-6.2l1.6-1
		c0,0,4.8-7.3,5.9-6.5c6.3,5.1,9.2,6.7,9.2,6.7s0.2,0.2,1.6-1.3c1.5-1.5,4-5.6,6.3-5.5C536.6,446.9,541.7,448.8,544.5,450.1z"/>
	<path class="st19" d="M532.8,502.5l9.3,3.4l15.4-33.6c0,0,0.7-0.7-1.2-4.2c-1.9-3.5-4.4-7.7-4.4-7.7l-3.2-8.3l-4.2-2
		c0,0,5.3,11,5.6,14.9c-3.7,7.1-3.7,7.1-3.7,7.1l-7.2-3.3l-38.7,57.7c0,0,22.7,18.2,23.1,17.7c0.3-0.5,10.4-14.4,10.4-14.4l-7.1-5.5
		L532.8,502.5z"/>
	<path class="st20" d="M518.9,608.3l22.2-41.1l13.7-21.8L534,529.7l-10.4,14.4l-23.1-17.7l-20,25.7c0,0-1.9,6.9-2.8,8.4
		c-0.8,1.5-1.5,2-0.8,3.9c0.7,1.8,1,4.1,1,4.1L471,577l-3.9,0.5c0,0,5.5,7.4,6.9,8.6c1.3,1.2,17,17.3,17.5,18.3s-1.7,4.5,0.3,6
		c2,1.5,5.7,2.4,7.2,2.4c1.5,0.8,1.8,3,3.5,3.7s2.9,1.8,6.2-0.7S516.2,608.3,518.9,608.3z"/>
	<path class="st21" d="M254.9,536.5l29.9-43.2l6.1-2.6c0,0,3.2,1,3.3,0.3c0.2-0.7,1.2-1.5,1.2-1.5s7.3,0.1,7.9-1.2
		c0.6-1.3,1.3-6,1.3-6s1.6-8.5,1.7-9.2c0.1-0.7-0.6-0.7-0.6-0.7s-1.7-2.1-3-2.5c-1.3-0.4-2.3-1.6-2.3-1.6s-0.9-0.9-0.3-3.2
		c0.6-2.3,0.8-2.7,0.8-2.7l21.6-8.8l11.1,12.9l0.1,2.2l25.8,21.3l2.6,1.2l-12.4,30.8l-6,2l-7.7,27.7l-0.2,2.7l-2.2,6.9
		c0,0,3.2,0.3,2.9,1.7c-0.3,1.3-3.7,6.6-3.7,6.6s-3.9-1.7-8.1,3.7c-4.2,5.4-3,5.4-5.7,5.5s-9.2,1.7-8.7-0.7c0.5-2.4,1.3-5.2,0-7.4
		c-1.3-2.2-2.4-4.2-1.8-6.7c0.6-2.5-0.7-5.7-2.6-6.4c-1.8-0.7-3.5-1.5-6,2.5s-4.5,8-5.6,8.6c-1,0.6-2.1,1.6-1.4-1.2
		c0.7-2.9,1.2-11.1,1.9-13.1c0.7-2,2.2-5,0.8-5.9s-3.2,0.9-3.9-1.6c-0.7-2.4-4-5.8-6.9-2.6c-2,2.8-0.8,5.7-0.7,6.9
		c-0.7,1.2-2.2,1.8-2.7,3.2c-0.5,1.5-7.7,4-6.6,0.9s2-5.8,1.5-7.6c-0.3-2-1.2-3.7-4-3.3C269.7,544.6,261.9,542.5,254.9,536.5z"/>
	<path class="st22" d="M426.5,523l-4.3,13.4l-14.1-0.5v13.7l-5.9,22.3v14c0,0-7.2-1-8.6,0c-1.3,1-8.1,6.9-9.4,6.7
		c-1.3-0.2-4.5,0.8-2.2-1.5c2.4-2.4,4.5-5.7,5.2-7.7c0.7-2-1.2-9.1-7.7-8.4c-3.9,0.8-5.2,4.7-4.2,7.9c1.1,2.7,1.1,3.7-3.6,4.2
		c-4.7,0.5-8.6,0.8-9.6-1c-1-1.8-2.7-2.5-6.5,1c-4.2,4.4-9.9,6.6-10.2-0.5c-0.1-7.1-3.9-11.6-6.5-6.6c-2.2,7.1-2.9,10.1-3.7,9.9
		s-2.4-0.5-1.7-3.9c0.7-3.4,3.4-10.6,3.4-12.4c0-1.8-1.9-4.2-4.2-4.4c3.7-6.6,3.7-6.6,3.7-6.6l-2.9-1.7l2.2-6.9l0.2-2.7l7.7-27.7
		l6-2l12.4-30.8l13.1,6.2L426.5,523z"/>
	<path class="st23" d="M480.5,552.2c0,0-2.3,7.3-3.1,9c-0.8,1.9-1.1,1.2-0.5,3.3s1,4.1,1,4.1L471,577l-3.9,0.5l4.6,5.9
		c0,0,0.1,0.2-0.9,0c-1-0.2-6.8-1.8-8.4-3.2c-1.6-1.4-7.5-3-9.9-1.1c-2.6,2-5.2,2.4-6.2,1.7c-1-0.6-4.2-2.7-6.2-2.7
		c-2,0-6.7,1-7.7,0.5c-1-0.5-5.2,1.2-6.9,1.9c-1.7,0.6-13.3,4-14.5,4.2s-7.8,1.3-8.6,1.2c0-14,0-14,0-14l5.9-22.3V536l14.1,0.5
		l4.3-13.4L480.5,552.2z"/>
	<path class="st24" d="M518.9,608.3c0,0,8.3,0.6,4.6,6.1c-7.2,5.9-9.9,7.7-7.8,8.3c2.1,0.6,7.3,2.6,10.1,0.7c2.8-2,11-5.1,16-7.9
		c5-2.8,7.7-4.8,10.1-1c1.7,3.8,0,6.4,2,5.8c2-0.6,1.5-2.2,4.5-1.7s6.7,2.4,6.2,4.6c-0.4,2.2-0.7,2.9,1.6,4.8
		c2.3,1.9,4.8,4.4,6.8,5.1s4.9,1,7.4,1.9c2.6,0.8,5.8,1.6,7.3,2.2s5.3,3.9,6,5.9c2,0.1,2.8,0,2.8,0l6.4-8.8l4.5-16.4l-4.5-2.2v-3.3
		l-7.6-6.2c0,0-0.1-4.5-0.7-5.4s-3.5-6.4-3.5-6.4l-5.6-1.9l-1.9-1l-16.6-4.2L555.5,575l-4.1,0.3l-10.3-8.1L518.9,608.3z"/>
	<path class="st25" d="M668.5,660.9c0,0.4,0.5,3.9,4.2,2c3.7-1.9,4.3-1.4,4.9-3c0.6-1.6,0.1-3.7,1.3-4.5c1.2-0.7,1.5,1.7,1.5,4
		s0.4,2.5,0.9,3c0.6,0.5-0.4,4.3,0,7.3c0.4,2.9,0.4,3.5,0.2,4c-0.2,0.5-2.8,2.3-4.2,4.1s-1.1,2.3-1.1,2.3s11.2,23.9,11.7,23.9
		s8.9-1.6,9.4-0.7c0.5,0.9,2,10.7,2.3,12.1c0.4,1.4,1.1,4.6,1.1,4.6v7.5c0,0-2.8,6.1-2.9,7.4c-0.1,1.3-0.5,6-0.5,6s-7.5,1.4-8.6,1.9
		c-1.1,0.5-10.2,1.9-10.2,1.9s-1.4,5.5-2.2,5.5c-0.8,0-10.2,0-10.2,0s-0.4,1.9-2,2.3s-4,0.6-5.2,2c-1.2,1.4-3.3,3.6-3.3,3.6
		s-1.8,4.2-2.6,3.7c-0.8-0.5-3.4-2.7-4.8-3.5c-1.4-0.8-10-7-10.4-7.3c-0.5-0.2-4.9-2.1-5.2-4s-1.2-2.9,0-4.9s4-7.3,4.2-10.2
		c0.2-2.9-0.5-6.6-0.1-7.6c0.4-1.1,1.8-1.8,2.6-2.6c0.8-0.8,1.1-2.2-0.1-4.3c-1.2-2.1-4.1-2.9-5.3-4.9s-2.7-2.5-3.9-1.9
		c-1.2,0.6-1.9,2-2.8,2.2c-0.9,0.2-4.8,1.1-3.4-1.4c1.4-2.5,2.8-3.3,1.8-4.3c-1.1-1.1-3-0.6-2.1-1.6c0.9-1.1,1.5-2.8,1.1-4.1
		s-1.8,0.4,0.2-2.5c2-2.8,1.9-2.3,2.8-3.7c0.9-1.4,1.1-1.8,1.8-2.6c0.7-0.8,1.6-0.8,1.9-1.4c0.2-0.6-3.4-6-5.5-4.6
		c-2.3,1.6-3.3,2-3.7,1.9c-0.5-0.1-2.3-0.1-2.9,0.5c-0.6,0.6-2,3.2-2,3.2s-2.8-3.9-4.6-4.6c-1.8-0.7-3.6-1.2-4.1-1.4
		c-0.5-0.2-6.8-10-7-10.3c-0.2-0.4,0.4-4.5,0-4.8s-7.4-5.2-7.7-5.5c-0.4-0.4-2.8-4.3-2.6-6.6s-0.9-10.3-0.9-10.3s-1.4-5.2-1.5-5.7
		c-0.1-0.5-1.6-3.1,0-3.1s3.2,2,5.3,5.4c2.2,3.3,1.9,3.3,6.6,2.9c5.2-0.2,7.6-1.8,8.8-0.7c1.2,1.3,1.1,3-1.3,4.7
		c-2.3,1.6-4,4.5-2.9,6.6c1.1,2,3.6,1.8,7,1.6s3.5-0.1,4.1,0.6c0.6,0.7,4,1.3,6.4,1.2c2.5-0.1,7.3,2,9.6,4.5
		c2.5,2.5,5.9,3.2,8.7,0.8c2.8-2.3,5.2-4.5,9.8-1.2c6.1,2.2,11.7,2.6,10.2-2c-1.6-4.8-5.5-8.2-1.3-11.2c4.5-2.8,7.6-2.6,8.1,2.7
		C668.5,660.9,668.5,660.9,668.5,660.9z"/>
	<path class="st26" d="M581.8,669.1c0.5-0.1,1.8,17.7,1.8,17.7s12.5-0.6,12.7,0s0.8,3.3,1.9,4.3c1.1,1.1,3.7,3.6,4.3,3.5
		c0.6-0.1,1.8-2.3,1.8-2.3s0.8-2.8,1.3-1.5c0.5,1.3,0.7,2.1,0.7,2.1l1.5,0.4c0,0,0.5-0.2,1.3,0.2c0.8,0.5,0.8-0.2,0.8,0.5
		c0,0.7-0.9,2.2-0.9,2.2s-0.5,0.7,0.9,1.5c1.4,0.8,4.9,2.1,5,3.7s0.2,3.5,0,4c-0.2,0.5,1.3,1.1,2.6,1.1c1.3,0,2.2-0.1,1.9,0.9
		c-0.4,1.1,0.1,2.3,0.1,2.3s3.3,0.5,3.6,0.9c0.2,0.5-0.2,1.3,0,1.6c0.2,0.4,2,1,3.3,0.7s1.9-0.8,2.4,0.1c0.5,0.9,0.7,1.2,0.7,1.6
		s7.7,9.6,7.7,9.6v8.4l-4.7,10.9l0.8,4c0,0,1,2.5,4.9,3.3c-0.7,1.4-0.1,1.4-0.7,1.4s-14.2,0.9-15,0c-0.8-0.9-5.6-4.1-7.5-6
		c-1.9-1.9-3.2-3.6-6.2-4.6c-3-0.9-4.9-1.1-5.5-1.2s-0.2-1.6-0.6-0.1c-0.4,1.5,0,4.6-0.4,5.4c-0.4,0.8-1.4,2.5-2,2.3
		c-0.6-0.1-2.5-0.7-2.5-0.7s-1.5-1.3-1.9-1.6c-0.4-0.4-0.8,0.4-2.2-0.1s-1.4-0.6-2.3-1.3c-0.9-0.7-1.7-0.8-1.7-0.8s-4.8,1.8-5.2,0
		c-0.4-1.8,0.1-2.6-0.6-2.8c-0.7-0.2-3-0.7-3.7,0.1c-0.7,0.8-1.3,1.8-1.9,2.3c-0.6,0.6-1.1,1.2-1.8,0.6c-0.7-0.6-1.4-0.2-1.2-1.4
		s0-2.1,0.5-3.7c0.5-1.6,1.1-2.2,0.8-2.9c-0.2-0.7-4-0.6-5.4-1.4c-1.4-0.8-3.5-1.5-5.6-0.8c-2.1,0.7-3.4,1.5-4.1,2.1
		c-0.7,0.6-4.5,5.5-9.5,7s-10.1,3.2-12.1,3.4c-2,0.2-20.7,3-21.8,2.9s-9.4-0.2-11.1-3.6s-5.6-11-9-12.4c-3.4-1.4-12.3-8.9-14.5-13.7
		s-5.3-8.3-4.2-9.7c1.1-1.4,1.9-1.9,3.2-2.5c1.3-0.6,1.3-0.4,3.2-0.7c1.9-0.4,2.5-0.2,3.2-0.8c0.7-0.6,1.4-0.1,0.8-1.4
		c-0.6-1.3-2.5-1.5-2.1-2.6c0.4-1.1,0.7-1.3,2-1.4c1.3-0.1,1.9,0,2-0.5c0.1-0.5-1.1-0.5-1.2-2s-0.8-1.2-0.2-3.2s0.9-2.5,1.1-3.3
		c0.1-0.8,1.4-5.9,1.1-6.3c-0.4-0.5,14.9-2.2,16.4-2.5c1.5-0.2,3.2-1.2,4.6-1.5c1.4-0.4,13.4-1.9,14.4-1.9c1.1,0,18.7-2.7,20.7-2.9
		c2-0.2,9-1.4,10.8-1.8c1.8-0.4,4-1.6,4-1.6S568.3,671.7,581.8,669.1z"/>
	<path class="st27" d="M623.3,688.2c0,0-0.6,1.9,0.9,2.4s2.2,0.8,3.2,0.6c1-0.2,2.4-1.1,2.3,0.1c0,1.2,0,1.2,0,1.2l1.9-1.4
		c0,0-2.2-3.6-3.1-4.1c-0.9-0.5-1.4-1.1-2.4-0.4S623.3,688.2,623.3,688.2z"/>
	<path class="st27" d="M631,710.4c-0.7,0.2,0,3.5,1.5,4.4c1.5,0.9,1.8,1.1,2.3,2.1c0.6,1,0.7,1.9,1.6,1.9c0.9,0,1.7,0.6,2.1,0
		c0.4-0.6,1-1.4,1-1.4s-2-2-2.9-2.7c-0.9-0.6-1.8-1.5-1.8-1.5s-1.8-2.2-1.8-2.3C632.8,710.9,631.6,710.1,631,710.4z"/>
	<path class="st28" d="M292.9,573.6l-9.3,11l0.8,7.3c0,0-0.1,17.1-0.2,19.1c-0.1,2,0.2,4-0.6,6.6s-1.2,5-2,6.1s-1.4,1.6-1.1,2
		c0.2,0.4,1.7,1.5,3.5,1.5c1.7,0,2.7,1.6,4.7,0c2-1.6,2.1-2.1,3.7-3.2s2.6-2,2.6-2l1-0.4c0,0,9.1,8.4,9.2,8.9
		c0.1,0.5-0.5,4.8-1.1,6.2c-0.6,1.4-2.2,6.2-3,8.9c-0.7,2.7-2.1,3.6-1.2,4.8s0.9,1.4,1.9,1.5c1,0.1,13.9,2.7,13.9,2.7l29.1-2.9
		c0,0-2.6-5.2-1.5-6s3.4-1.2,3.4-1.2l11.8-2.5l2.4,6.7l10.9,7.2c0,0,1-3.9,1.4-4c0.4-0.1,10.1,0.7,10.1,0.7l7.5-9.9l-2.9-2l6.6-11.6
		l0.7-8.3c0,0,10.9-2.4,11.9-2.4s2.4-2.2,2.4-2.2l-4.8-27.8c0,0-6.2-0.9-8.1-1c-1.9-0.1-3.4-0.2-4.5,1.5c-1.1,1.7-5,4.3-6.1,5.1
		s-5.4,0.9-6.1,0c-0.7-0.9-1-1.4,0-2.6c1-1.2,3.4-5.2,4.1-6.5c0.7-1.2,2.1-4.8,0-6.5c-2.1-1.6-4.1-2.2-5.1-1.6c-1,0.6-2.1,2-0.6,6.5
		c1.1,3,0.6,5.2-0.5,5.2c-1.1,0-14.2,0.2-14.7,0c-0.5-0.2-1.6-2.6-3.4-1.1c-1.7,1.5-5.5,4-6.7,4.6c-1.2,0.6-6.4,1.5-8-1.5
		s-0.8-2.7-0.9-4.8c-0.1-2.1-0.5-5.4-1.5-5.7c-1-0.4-3,2.2-4.2,7.3c-1.4,5-3.6,6.4-4.6,5.1c-0.9-1.3-3.3-2.1-2.2-6.8
		c1.1-4.7,3-10,3.5-11.4c0.5-1.4-0.2-2.9-1.3-3.2c-1.2-0.4-4.5-0.5-7.3,3c-2.7,3.5-5.7,6.3-7.3,6.7c-1.6,0.4-10.3,0.5-10.5,0.1
		c-0.2-0.4-2.9-2.1-1.4-4.7c1.5-2.6,2.5-4.6,0.9-6c-1.6-1.4-2.4-2.4-1.7-5s0.9-4.7-1.1-5.2c-2-0.5-3.7-0.5-5.8,4.2s-3.6,7.5-4.2,8
		S292.9,573.6,292.9,573.6z"/>
	<path class="st29" d="M489.3,605c0.1,0.6-3.9,7.2-3.9,8.7s0.6,11.1,0.6,11.1s-27-10.2-27.7-9.9c-0.7,0.3-4.2,10.5-4.2,10.5
		s-4.8-0.1-4.6-1.4c0.2-1.2,0-3.1,0-3.1s-1.7-0.5-2-1s-0.5-0.5,0-1.4s0.7-2.4,0.7-2.4l-9.8-0.4l-0.5-4.3c0,0-7.7-0.6-8.2-2.2
		s-1.7-6.1-1.9-6.8s-2.7,2.6-2.7,2.6s-6.6,6.8-7.1,7.3s-3.9,3.6-6.3,3.9s-2.5,0.2-2.5,0.2l-4.8-27.8c0,0,16.4-4,18.6-4.8
		c2.2-0.9,3.7-1.6,5.3-2.1c1.6-0.5,5.8-1.6,8.9-1.5c3.1,0.1,5.2,2.4,7,3c1.7,0.6,4.7,1.6,7.1-0.1c2.4-1.7,1.5-3.6,5.1-2.4
		s3.7,1.5,5.1,2.2c1.4,0.7,4.3,1.1,5.6,1.4c1.3,0.2,1.9,0.4,3.3,1.7c1.4,1.3,17.1,17.5,17.1,17.5L489.3,605z"/>
	<path class="st30" d="M485.5,684.3c2.3-17.7,3.9-35.6,5.8-53.2c-1.8-3.1-3.5-6-5.3-8.9l0.1,2.5l-24.7-9l-3-0.8l-4.2,10.5
		c0,0-3.4,0.1-4-0.6c-0.6-0.7-0.6-0.7-0.6-0.7l0-3.1c0,0-2.8-0.4-2.2-1.9c0.6-1.5,1.5-3.1,1.3-2.9c-0.3,0.1-10.1-0.2-10.1-0.2
		l-0.5-4.3c0,0-7.5-1.3-7.8-1.8c-0.4-0.5-2.2-7.3-2.2-7.3l-2.7,2.6c0,0,1.1,0.7,1,2.1c-0.1,1.4-0.5,18.3-0.5,19.1
		c0,0.8-0.5,2.3,0.7,2.5c1.2,0.2,4,0.4,5.4,0c1.5-0.4,5.4,0.9,6.4,1.3c0.9,0.4,0.8,1.8,0.5,2.4c-0.2,0.5-1.4,5.1-1.4,5.1
		s-1.2,9.4-1.3,10.7c-0.1,1.4-3.4,11.2-3.4,11.2s4.7,0.5,4.8,0.9c0.1,0.5-1.5,14.4-1.5,14.4s21.8,5.3,22,5.4c0.2,0.1,9.8,2.6,10,3.5
		c0,0.1,0.1,0.4,0.2,0.8C473.8,685,479.8,683.7,485.5,684.3z"/>
	<path class="st31" d="M387.6,640.9l2.9,2c0,0-0.3,0.5,0,0.6c0.3,0.1,14.4,11.2,16.2,12.9c1.8,1.6,12.4,9.5,12.4,9.5l4.3,1.4
		l5.8,4.1l6.9,2.5l1.4-13.4c0,0-3.8-0.8-4.8-0.9c2.5-7.9,3.3-10.6,3.3-10.6l1.5-10.9l1.5-6.7c0,0,0.6-0.9-0.7-1.3
		c-1.3-0.5-4.4-1.3-4.9-1.3s-1.7-0.2-2.3,0c-0.7,0.2-5.2,0.3-5.3-0.4c-0.1-0.7,0-2.9,0-2.9s0.5-16.5,0.5-16.7c0-0.2,1.1-1.9,0.4-2.5
		s-1.4-1.2-1.4-1.2s-7.8,9.2-10.9,10.2c-3.2,1-5,1.2-5,1.2s-1.6,2-2,2.1S395,621,395,621l-0.7,8.3L387.6,640.9z"/>
	<path class="st27" d="M607.7,693.2c-1.3,0.7-1.5-0.4-1.5-0.4l-0.7-2.1c0,0-1,1.7-2.3,3.1c-1.2,1.4-2.3-0.2-2.3-0.2
		s-4.9-4.1-4.7-6.9c-3.4-0.3-12.7,0-12.7,0l-1.8-17.7l-18.7,3.7l-3.1,1.4l-46.8,6.8l-2.2-2.8l-13,0.6c0,0,3.7-17.3,4.4-18.9
		c0.7-1.6,0.4-2.6,2.4-2.4c2,0.2,7.5,0.4,8.4,0.3c0.9-0.1,15.7-3.9,15.7-3.9l6.8-11c0,0,4.5,1.9,5.4,2c0.9,0.1,22.2-0.2,22.2-0.2
		s1.5,0.9,3.1-4c1.6-5,2.2-7.6,2.2-7.6s0.4-0.5,2.9,1.4c2.5,1.9,5.4,3,8.6,3.3s3.4,0.6,4.2,0.8s2.8,0.1,2.6,1
		c-0.2,0.9,1.4,11.9,1.3,14.9c-0.1,3,1.7,8.1,1.7,9.2s0,4.4,0,4.4h3.6c0,0,1.1,4.2,1.6,4.2c0.5,0,6.7-1,6.7-1v4.8l7,10.3
		c0,0-2.6,0.1,1,2.6c3.6,2.5,5.3,3.4,5.5,3.4c0.3,0,3,0.5,3,0.5s1.7-0.7,2.7,6.1c0.9,1.9,1,5.7,1,5.7l0,6l-2.6-0.5l0.1-3
		c0,0-4.8-0.1-4.6-1.3c0.2-1.2,0-4,0-4l-0.8-1.3l-0.7-1.2c0,0-5.3-2.3-4.5-2.8l0.9-2.2l-0.1-0.3c0,0-0.4,0-0.8-0.1
		C608.7,693.3,608.1,693,607.7,693.2z"/>
	<path class="st32" d="M609.1,697.1"/>
	<path class="st32" d="M617.4,692.1c0,0,3.4,1.6,3.3,4.1c-0.1,2.5,0.6,3.2,0.6,3.2s0.8,0.7,0.7,2.2c-0.1,1.6,0,0.9,0,2.7
		s-0.1,2.2,0,3.2c0.1,1,0,2.7,0,2.7l-2.6-0.5c0,0,0.1-1.5-0.1-2.3c-0.2-0.8,0-0.9-1.2-0.9c-1.2,0-3.2-1.1-3.2-1.1
		c0-3.3,0.3-4.5-0.8-5.3"/>
	<path class="st33" d="M489.3,605c0,0-0.4,3.7,0,6.5c0.8,4.8,7.3,1.3,8.7,3.3s1.2,3.6,4,4.5c2.8,0.9,3.3,2.6,8.4-1.9
		s6.3-6.9,8.4-6.1c2.1,0.7,3.2,1,1.7,2.4c-1.4,1.3-4.2,2.6-5.4,3.8c-1.1,1.2-3.5,5.1-2.5,6.7c1,1.6,1.2,0.7,4.9,1.3
		c3.7,0.6,5.8,2.7,7.9,1.2c2.1-1.5,4.9-4.5,7.9-5.1s4.4-0.3,7.7-2.2c3.3-1.9,4.1-4.2,6.4-3.9c2.4,0.3,3.6-0.1,3.6,2
		s-0.4,5.4,0.7,5.2c1.2-0.1,2.2,1.8,4.3,0c2.1-1.8,2.7-3.6,3.8-1.8c1.1,1.8,1.7,2.1,2.6,4.6c0.9,2.4,3.1,5.3,4.5,6
		c1.3,0.7,1.5,1.6,1.5,1.6s-3.2,10.1-3.5,10.5s-1.1,1.2-1.1,1.2l-22.9,0.2l-5.4-2l-6.8,11l-15.7,3.9c0,0-9.9-0.1-10,0
		c-0.1,0.1-5.8,21-5.2,21c0.6,0-5.7,6.2-5.7,6.2s-0.7,4.5-0.8,5c-0.1,0.5-0.6,2.4-1,3.5s-0.8,0.8-0.3,2.5s-0.2,1.8,1.1,2.4
		c1.1,0.4,0.9,1,0.9,1s0.1,0.3-0.9,0.6c-2,0.6-3,0.5-3,0.5l-0.7,1.1l2.1,2.6c0,0,1.1,0.8-0.8,1.4c-1.9,0.6-3.8,0.9-4.4,1
		s-3.3,1.3-3.3,1.3l-1.9,2.4c0,0-2.2-1.8-2.8-5.2s-4.6-13.4-5.8-15.1c-1.2-1.6-3.1-5.7-2.3-5.6c0.8,0.1,11.9-0.2,11.9-0.2l5.5,0.1
		l5.8-53.2l-5.3-8.9l-0.4-9.3L489.3,605z"/>
	<path class="st34" d="M390.5,642.9l-7.5,9.9l-10.1-0.7l-1.4,4c0,0,5.9,2.8,8.1,3.2c2.1,0.4,3.2,0.1,4.4,0s1,0.1,1.9-0.7
		c0.9-0.9,0.2-1.6,1.6-0.9c1.5,0.7,2.7,1.7,2.9,1.9c0.1,0.2,0,1.7,0,1.7l-4.9,10.3l0.1,2.9c0,0-0.7,0.1-1.6,0.6
		c-0.9,0.4-1.8,1.3-1.8,1.3s-0.6,2.1-1.2,3c-0.6,0.9-2,5.1-2,5.1s-3.4-0.2-4.2,0c-0.7,0.2-0.6-0.1-1,1.7c-0.4,1.8-0.4,1.8-0.4,1.8
		l-1.8,1.5l0.6,1.3c0,0,6,2.1,6.6,1.8c0.6-0.3,0.1,1.6,0.1,1.6s-1,1.6-1.6,2.4c-0.6,0.7-8.5,13.5-8.5,13.5s1.5-0.4,1.5,0.6
		c0,1.1-0.6,1.2-0.9,1.8c-0.3,0.6-0.6,1-0.6,1l3.9,3.7c0,0,0.4,1.8-0.3,1.8s-1.2,0.1-0.4,0.9s1.8,0.9,1.8,0.9s1.8-0.4,2.7-1.3
		c0.9-0.9,2.5-1.5,2.5-1.5l7.9,0.4c0,0,14,8.5,16.1,8.5s15.5,0.3,16.3,0s16.1-11.5,16.6-12.5c0.4-1,0-1.6,0-1.6s0,0.1-2.8-0.4
		c-2.8-0.6-6.1-1.4-6.4-1.6c-0.3-0.3,15.5-34.7,15.5-34.7l-6.2-1.5l0.4-1.7l-7.1-1.8l-5.8-4.1l-4.3-1.4L390.5,642.9z"/>
	<path class="st35" d="M301.7,651.9c0,0,1,18.1,1.5,17.9c0.4-0.1,3.6,0.3,4.2,0.9s0.3,8.2,1.3,10.9c1,2.7,1,2.5,1,4.2s0.6,2.7,0,3.6
		c-0.6,0.9-1.9,2.7-1.9,2.7v7c0,0,7.2,0.1,8.2,0c1-0.1,6.3,2.5,7.8,3.4c1.5,0.9,2.1,1.8,2.1,2.5c0,0.7,0.6,6.9,0.6,7.9
		c0,1,0,4.8,0,4.8s5.5,2.2,7.2,1.8c1.6-0.4,3.1-0.9,3.1-0.9s1.3-0.6,1.9-0.6s1.2,0.1,1.2,0.1s0,1.6,0.9,1.4c0.9-0.2,9.9-0.5,10.5-1
		s2.4-1.3,2.4-1.3l2.5,0.3c0,0,7.8-0.6,8.8-0.4s2.4,1.3,3,1.5c0.6,0.1-1,0.5,1.5,1c2.5,0.5,2.5,0.5,2.5,0.5l0.4-0.9l0.3-1.8
		l-3.9-3.7l1.5-2.8c0,0-0.1-1.1-1.5-0.6c2.5-4.1,10.2-15.9,10.2-15.9l-0.1-1.6l-6.6-1.8l-0.6-1.3l1.8-1.5l1.5-3.5h4.2l2-5.1
		c0,0,0.3-0.1,0.7-1.6c0.5-1.4,0-1.2,1.1-2c1.1-0.8,1.1-0.8,1.1-0.8l1.6-0.6l-0.1-2.9l4.9-10.3v-1.7l-4-1.9c0,0,0.8,1.3-1.3,1.5
		s-4.4,0.3-4.4,0.3l-5.6-1.8l-3.6-1.6l-10.9-7.2l-2.4-6.7l-14.3,3.3c0,0-1.9-0.4-1,2.2c0.9,2.7,1.6,4.2,1.6,4.2l-29.1,2.9
		L301.7,651.9z"/>
</g>
</svg>
